<?xml version="1.0" encoding="UTF-8" standalone="no"?>
<!-- Created with Inkscape (http://www.inkscape.org/) -->

<svg
   id="svg5"
   version="1.1"
   viewBox="0 0 300 150"
   height="150mm"
   width="300mm"
   sodipodi:docname="homepage.svg"
   inkscape:version="1.2 (dc2aedaf03, 2022-05-15)"
   inkscape:export-filename="homepage.svg"
   inkscape:export-xdpi="96"
   inkscape:export-ydpi="96"
   xmlns:inkscape="http://www.inkscape.org/namespaces/inkscape"
   xmlns:sodipodi="http://sodipodi.sourceforge.net/DTD/sodipodi-0.dtd"
   xmlns:xlink="http://www.w3.org/1999/xlink"
   xmlns="http://www.w3.org/2000/svg"
   xmlns:svg="http://www.w3.org/2000/svg">
  <sodipodi:namedview
     id="namedview8"
     pagecolor="#ffffff"
     bordercolor="#000000"
     borderopacity="0.25"
     inkscape:showpageshadow="2"
     inkscape:pageopacity="0.0"
     inkscape:pagecheckerboard="0"
     inkscape:deskcolor="#d1d1d1"
     inkscape:document-units="mm"
     showgrid="false"
     inkscape:zoom="0.97137992"
     inkscape:cx="423.10943"
     inkscape:cy="312.95685"
     inkscape:window-width="2560"
     inkscape:window-height="1369"
     inkscape:window-x="-8"
     inkscape:window-y="-8"
     inkscape:window-maximized="1"
     inkscape:current-layer="svg5" />
  <defs
     id="defs2">
    <linearGradient
       id="linearGradient11108"
       inkscape:swatch="solid">
      <stop
         style="stop-color:#000000;stop-opacity:1;"
         offset="0"
         id="stop11106" />
    </linearGradient>
    <linearGradient
       id="linearGradient11102"
       inkscape:swatch="solid">
      <stop
         style="stop-color:#000000;stop-opacity:1;"
         offset="0"
         id="stop11100" />
    </linearGradient>
    <linearGradient
       id="linearGradient9875"
       inkscape:swatch="solid">
      <stop
         style="stop-color:#000000;stop-opacity:1;"
         offset="0"
         id="stop9873" />
    </linearGradient>
    <linearGradient
       id="linearGradient9626"
       inkscape:swatch="solid">
      <stop
         style="stop-color:#000000;stop-opacity:1;"
         offset="0"
         id="stop9624" />
    </linearGradient>
    <linearGradient
       id="linearGradient9620"
       inkscape:swatch="solid">
      <stop
         style="stop-color:#000000;stop-opacity:1;"
         offset="0"
         id="stop9618" />
    </linearGradient>
    <linearGradient
       id="linearGradient9614"
       inkscape:swatch="solid">
      <stop
         style="stop-color:#000000;stop-opacity:1;"
         offset="0"
         id="stop9612" />
    </linearGradient>
    <linearGradient
       id="linearGradient9608"
       inkscape:swatch="solid">
      <stop
         style="stop-color:#000000;stop-opacity:1;"
         offset="0"
         id="stop9606" />
    </linearGradient>
    <linearGradient
       id="linearGradient9602"
       inkscape:swatch="solid">
      <stop
         style="stop-color:#000000;stop-opacity:1;"
         offset="0"
         id="stop9600" />
    </linearGradient>
    <linearGradient
       id="linearGradient9596"
       inkscape:swatch="solid">
      <stop
         style="stop-color:#000000;stop-opacity:1;"
         offset="0"
         id="stop9594" />
    </linearGradient>
    <linearGradient
       id="linearGradient9590"
       inkscape:swatch="solid">
      <stop
         style="stop-color:#000000;stop-opacity:1;"
         offset="0"
         id="stop9588" />
    </linearGradient>
    <linearGradient
       id="linearGradient9584"
       inkscape:swatch="solid">
      <stop
         style="stop-color:#000000;stop-opacity:1;"
         offset="0"
         id="stop9582" />
    </linearGradient>
    <linearGradient
       id="linearGradient9578"
       inkscape:swatch="solid">
      <stop
         style="stop-color:#000000;stop-opacity:1;"
         offset="0"
         id="stop9576" />
    </linearGradient>
    <linearGradient
       id="linearGradient9572"
       inkscape:swatch="solid">
      <stop
         style="stop-color:#000000;stop-opacity:1;"
         offset="0"
         id="stop9570" />
    </linearGradient>
    <linearGradient
       id="linearGradient9566"
       inkscape:swatch="solid">
      <stop
         style="stop-color:#000000;stop-opacity:1;"
         offset="0"
         id="stop9564" />
    </linearGradient>
    <linearGradient
       id="linearGradient6594"
       inkscape:swatch="solid">
      <stop
         style="stop-color:#000000;stop-opacity:1;"
         offset="0"
         id="stop6592" />
    </linearGradient>
    <linearGradient
       id="linearGradient6586"
       inkscape:swatch="solid">
      <stop
         style="stop-color:#000000;stop-opacity:1;"
         offset="0"
         id="stop6584" />
    </linearGradient>
    <linearGradient
       id="linearGradient949"
       inkscape:swatch="solid">
      <stop
         style="stop-color:#000000;stop-opacity:1;"
         offset="0"
         id="stop947" />
    </linearGradient>
    <linearGradient
       id="linearGradient916"
       inkscape:swatch="solid">
      <stop
         style="stop-color:#000000;stop-opacity:1;"
         offset="0"
         id="stop914" />
    </linearGradient>
    <linearGradient
       id="linearGradient903"
       inkscape:swatch="solid">
      <stop
         style="stop-color:#000000;stop-opacity:1;"
         offset="0"
         id="stop901" />
    </linearGradient>
    <linearGradient
       id="linearGradient893"
       inkscape:swatch="solid">
      <stop
         style="stop-color:#000000;stop-opacity:1;"
         offset="0"
         id="stop891" />
    </linearGradient>
    <linearGradient
       id="linearGradient883"
       inkscape:swatch="solid">
      <stop
         style="stop-color:#000000;stop-opacity:1;"
         offset="0"
         id="stop881" />
    </linearGradient>
    <linearGradient
       id="linearGradient875"
       inkscape:swatch="solid">
      <stop
         style="stop-color:#000000;stop-opacity:1;"
         offset="0"
         id="stop873" />
    </linearGradient>
    <linearGradient
       id="linearGradient865"
       inkscape:swatch="solid">
      <stop
         style="stop-color:#000000;stop-opacity:1;"
         offset="0"
         id="stop863" />
    </linearGradient>
    <linearGradient
       id="linearGradient3878"
       inkscape:swatch="solid">
      <stop
         style="stop-color:#000000;stop-opacity:1;"
         offset="0"
         id="stop3876" />
    </linearGradient>
    <linearGradient
       id="linearGradient3870"
       inkscape:swatch="solid">
      <stop
         style="stop-color:#000000;stop-opacity:1;"
         offset="0"
         id="stop3868" />
    </linearGradient>
    <linearGradient
       id="linearGradient1823"
       inkscape:swatch="solid">
      <stop
         style="stop-color:#000000;stop-opacity:1;"
         offset="0"
         id="stop1821" />
    </linearGradient>
    <linearGradient
       id="linearGradient808"
       inkscape:swatch="solid">
      <stop
         style="stop-color:#000000;stop-opacity:1;"
         offset="0"
         id="stop806" />
    </linearGradient>
    <linearGradient
       inkscape:collect="always"
       xlink:href="#linearGradient9566"
       id="linearGradient9568"
       x1="123.55572"
       y1="92.703033"
       x2="164.60695"
       y2="92.703033"
       gradientUnits="userSpaceOnUse"
       gradientTransform="translate(8.0892388,-6.7410323)" />
    <linearGradient
       inkscape:collect="always"
       xlink:href="#linearGradient9572"
       id="linearGradient9574"
       x1="122.37027"
       y1="73.7379"
       x2="139.42549"
       y2="73.7379"
       gradientUnits="userSpaceOnUse"
       gradientTransform="translate(8.0892388,-6.7410323)" />
    <linearGradient
       inkscape:collect="always"
       xlink:href="#linearGradient9578"
       id="linearGradient9580"
       x1="100.34034"
       y1="73.879593"
       x2="123.05232"
       y2="73.879593"
       gradientUnits="userSpaceOnUse"
       gradientTransform="translate(8.0892388,-6.7410323)" />
    <linearGradient
       inkscape:collect="always"
       xlink:href="#linearGradient9584"
       id="linearGradient9586"
       x1="89.258621"
       y1="62.178703"
       x2="101.99587"
       y2="62.178703"
       gradientUnits="userSpaceOnUse"
       gradientTransform="translate(8.0892388,-6.7410323)" />
    <linearGradient
       inkscape:collect="always"
       xlink:href="#linearGradient9590"
       id="linearGradient9592"
       x1="69.272087"
       y1="31.853313"
       x2="128.67928"
       y2="31.853313"
       gradientUnits="userSpaceOnUse"
       gradientTransform="translate(8.0892388,-6.7410323)" />
    <linearGradient
       inkscape:collect="always"
       xlink:href="#linearGradient9596"
       id="linearGradient9598"
       x1="58.14764"
       y1="55.481377"
       x2="76.228088"
       y2="55.481377"
       gradientUnits="userSpaceOnUse"
       gradientTransform="translate(8.0892388,-6.7410323)" />
    <linearGradient
       inkscape:collect="always"
       xlink:href="#linearGradient9602"
       id="linearGradient9604"
       x1="62.228077"
       y1="74.180908"
       x2="67.69976"
       y2="74.180908"
       gradientUnits="userSpaceOnUse"
       gradientTransform="translate(8.0892388,-6.7410323)" />
    <linearGradient
       inkscape:collect="always"
       xlink:href="#linearGradient9608"
       id="linearGradient9610"
       x1="44.958996"
       y1="74.108681"
       x2="59.99136"
       y2="74.108681"
       gradientUnits="userSpaceOnUse"
       gradientTransform="translate(8.0892388,-6.7410323)" />
    <linearGradient
       inkscape:collect="always"
       xlink:href="#linearGradient9614"
       id="linearGradient9616"
       x1="5.6943378"
       y1="57.783669"
       x2="44.017078"
       y2="57.783669"
       gradientUnits="userSpaceOnUse"
       gradientTransform="translate(8.0892388,-6.7410323)" />
    <linearGradient
       inkscape:collect="always"
       xlink:href="#linearGradient9875"
       id="linearGradient9877"
       x1="183.26352"
       y1="57.027245"
       x2="209.51385"
       y2="57.027245"
       gradientUnits="userSpaceOnUse"
       gradientTransform="translate(2.503812,-7.8966378)" />
    <linearGradient
       inkscape:collect="always"
       xlink:href="#linearGradient9875"
       id="linearGradient9879"
       x1="212.88594"
       y1="56.031883"
       x2="239.50758"
       y2="56.031883"
       gradientUnits="userSpaceOnUse"
       gradientTransform="translate(0.86953897,-7.8966378)" />
    <linearGradient
       inkscape:collect="always"
       xlink:href="#linearGradient9875"
       id="linearGradient9881"
       x1="243.44986"
       y1="70.354248"
       x2="260.12085"
       y2="70.354248"
       gradientUnits="userSpaceOnUse"
       gradientTransform="translate(-4.0332801,-7.3518801)" />
    <linearGradient
       inkscape:collect="always"
       xlink:href="#linearGradient9875"
       id="linearGradient9883"
       x1="265.45694"
       y1="72.131966"
       x2="284.87375"
       y2="72.131966"
       gradientUnits="userSpaceOnUse"
       gradientTransform="translate(-6.7570685,-7.3518801)" />
    <linearGradient
       inkscape:collect="always"
       xlink:href="#linearGradient11108"
       id="linearGradient11110"
       x1="16.259599"
       y1="101.9238"
       x2="276.95011"
       y2="101.9238"
       gradientUnits="userSpaceOnUse" />
   <linearGradient id="pathStrokeColor">
      <stop stop-color="#ffffff"/>
   </linearGradient>
  </defs>
  <path
     style="fill:none;fill-opacity:1;fill-rule:nonzero;stroke:url(#pathStrokeColor);stroke-width:1;stroke-dashoffset:0"
     id="path9546"
     d="m 30.939105,16.348343 c -0.230325,0.666858 -0.453483,1.336234 -0.690976,2.000572 -1.529927,4.279676 -1.333532,3.482724 -3.025445,8.518949 -1.424687,4.240792 -3.227013,9.916771 -4.484557,14.157261 -0.74376,2.507988 -1.433348,5.031727 -2.150021,7.547589 -1.733266,6.203069 -3.289946,12.455551 -4.63235,18.754913 -0.531939,2.496174 -1.098993,5.380413 -1.504734,7.929599 -0.14434,0.906862 -0.251996,1.819185 -0.377995,2.728778 -0.144174,1.497274 -0.349292,3.008352 -0.272932,4.517686 0.0023,0.04595 0.06446,0.988184 0.234075,1.102407 1.168626,0.78698 2.433538,1.420556 3.650307,2.130836 0.217888,-0.102079 0.448671,-0.180248 0.653665,-0.306234 0.937009,-0.575874 1.839496,-1.401594 2.635155,-2.118866 1.183235,-1.066662 3.336641,-3.105552 4.393174,-4.208838 0.803678,-0.83924 1.559455,-1.723078 2.339182,-2.584617 2.741878,-3.209067 5.016893,-6.774444 6.932663,-10.52818 0.67664,-1.325801 1.050634,-2.187718 1.645735,-3.503409 0.0114,-0.02612 0.637373,-1.529236 0.82205,-1.764692 0.02798,-0.03567 0.165976,0.07304 0.124042,0.0558 -1.143786,-0.470172 -2.196198,-1.325933 -3.429667,-1.414634 -0.387516,-0.02787 -0.07125,0.773901 -0.119569,1.159401 -0.06982,0.557073 -0.156524,1.111899 -0.234786,1.667849 -0.421236,3.182916 -1.084105,6.368164 -1.28716,9.576046 -0.03137,0.495567 -0.03422,0.992529 -0.05133,1.488795 -0.0092,1.066889 0.0409,2.141106 0.261108,3.188181 0.0224,0.106497 0.241459,1.0306 0.401459,1.142508 1.194837,0.835692 2.490874,1.516446 3.73631,2.27467 0.257789,-0.0359 0.522981,-0.03664 0.773367,-0.107706 0.796692,-0.226132 1.606677,-0.688954 2.276006,-1.147969 1.148541,-0.787654 2.203061,-1.709716 3.172376,-2.707841 0.602131,-0.620025 1.150691,-1.289913 1.726036,-1.934872 0.551918,-0.738547 1.129164,-1.458827 1.655757,-2.215641 1.011007,-1.453015 1.865116,-2.9078 2.730706,-4.446972 0.418203,-0.743643 1.363382,-2.502122 1.767676,-3.346505 0.195974,-0.409303 0.365522,-0.830741 0.54828,-1.246113 0.384728,-0.951828 0.737158,-1.923318 0.882097,-2.944154 0.05122,-0.360722 0.05075,-0.519756 0.06751,-0.876451 -0.0032,-0.928153 -0.03971,-1.855819 -0.05242,-2.783967 -0.0011,-0.711163 0.0032,-1.422241 -0.07807,-2.129565 -0.101672,-0.511821 -0.202444,-1.023186 -0.265134,-1.541465 -0.05126,-0.291148 -0.02027,-0.15035 -0.09129,-0.422762 0,0 -3.569924,-1.691828 -3.569924,-1.691828 v 0 c 0.08111,0.244367 0.04053,0.122965 0.121716,0.364207 0.06267,0.523171 0.161284,1.040863 0.272222,1.555829 0.124124,0.695667 0.153744,1.403356 0.150143,2.109029 0.01516,0.920601 0.0317,1.841185 0.04404,2.761834 -0.0052,1.314418 -0.233392,2.568461 -0.679752,3.811249 -0.156331,0.422399 -0.299815,0.849781 -0.468997,1.267201 -0.430311,1.061709 -1.06861,2.431015 -1.583243,3.422845 -0.81802,1.576536 -1.620152,2.98494 -2.648879,4.441823 -0.526674,0.745876 -1.116896,1.444783 -1.675344,2.167175 -0.591296,0.622274 -1.153131,1.273932 -1.773886,1.866824 -1.014987,0.96943 -2.089293,1.818195 -3.298192,2.529498 -0.646936,0.380651 -1.538902,0.817793 -2.323142,0.898464 -0.22891,0.02355 -0.456792,-0.05619 -0.685188,-0.08429 0.932824,0.579157 1.822499,1.234421 2.798473,1.737476 0.15713,0.08099 -0.212048,-0.285422 -0.289571,-0.444293 -0.204348,-0.418775 -0.347707,-1.025639 -0.431554,-1.465898 -0.20288,-1.065255 -0.170537,-1.203126 -0.237844,-2.346946 -0.0016,-0.497579 -0.02159,-0.995437 -0.0048,-1.492737 0.03828,-1.136267 0.175683,-2.407637 0.311118,-3.53145 0.242813,-2.014825 0.550907,-4.022539 0.967266,-6.009303 0.115904,-0.537041 0.227076,-1.075122 0.347705,-1.61112 0.08403,-0.373382 0.513429,-0.824685 0.26624,-1.11687 -0.892935,-1.055478 -2.97404,-3.58713 -3.456943,-2.291688 -0.08561,0.229653 -0.144039,0.468566 -0.219788,0.701659 -0.128159,0.394369 -0.261276,0.787112 -0.391915,1.180666 -0.514395,1.388827 -0.789668,2.197285 -1.424663,3.5961 -1.732197,3.815813 -3.964805,7.384794 -6.712316,10.5552 -2.283113,2.441422 -2.308582,2.594084 -4.778509,4.755775 -0.716788,0.627337 -1.449465,1.237628 -2.205277,1.817356 -0.662355,0.508043 -1.962119,1.457317 -2.874954,1.801641 -0.175105,0.06605 -0.372056,0.04089 -0.558083,0.06133 0.992115,0.625469 1.953218,1.30307 2.976344,1.876406 0.127178,0.07127 -0.200961,-0.218977 -0.25803,-0.353126 -0.0898,-0.211085 -0.135885,-0.439491 -0.175291,-0.665469 -0.267944,-1.536576 -0.163184,-3.116295 -0.140815,-4.663827 0.0643,-0.93717 0.105458,-1.876213 0.192884,-2.811507 0.245303,-2.624251 0.650304,-5.56591 1.074119,-8.140324 1.053741,-6.400824 2.436701,-12.74454 4.122266,-19.008881 0.720223,-2.511359 1.386082,-5.038947 2.160667,-7.534077 1.569104,-5.054467 2.99,-9.000717 4.994459,-13.857282 0.681512,-1.651225 1.425335,-3.27633 2.172485,-4.898911 0.497315,-1.080016 1.017393,-2.149861 1.560353,-3.207668 0.312851,-0.609501 0.670702,-1.194835 1.006053,-1.792253 0,0 -3.351917,-1.920224 -3.351917,-1.920224 z" />
  <path
     style="fill:none;fill-opacity:1;fill-rule:nonzero;stroke:url(#pathStrokeColor);stroke-width:1;stroke-dashoffset:0"
     id="path9548"
     d="m 57.778486,68.832884 c 1.996749,-0.606537 4.035237,-1.199637 5.859989,-2.240534 0.403196,-0.229995 0.776031,-0.50954 1.164047,-0.76431 0.322578,-0.286055 0.672291,-0.544161 0.96773,-0.858168 1.007623,-1.07096 1.661475,-2.478101 2.045774,-3.883258 0.07469,-0.273082 0.122714,-0.552762 0.184071,-0.829143 0.07763,-0.702258 0.218733,-1.758569 -0.267396,-2.368646 -0.127289,-0.159742 -0.285189,-0.301241 -0.463587,-0.400711 -1.321552,-0.736846 -2.682444,-1.400807 -4.023665,-2.101212 -0.311189,-0.02948 -0.621093,-0.08033 -0.933569,-0.08844 -1.374153,-0.03567 -3.364518,0.268634 -4.508021,1.072444 -0.370697,0.260575 -0.662773,0.618058 -0.994158,0.927087 -0.297876,0.455501 -0.627494,0.891756 -0.893628,1.366504 -1.12436,2.005711 -1.910493,4.518771 -2.367936,6.766835 -0.115102,0.56566 -0.195027,1.137912 -0.292539,1.706866 -0.334534,2.577346 -0.278784,5.215327 0.273367,7.760452 0.07406,0.3414 0.175467,0.676291 0.2632,1.014439 0.182565,0.468767 0.339717,1.014759 0.686112,1.405673 0.14397,0.162475 0.317497,0.309009 0.51553,0.397936 1.380837,0.620069 2.72877,1.374783 4.202393,1.720657 0.256043,0.0601 2.07205,-1.098079 2.177611,-1.162003 1.263319,-0.812326 2.433526,-1.758944 3.594716,-2.708595 0,0 -3.212856,-2.00234 -3.212856,-2.00234 v 0 c -1.088446,0.98411 -2.208922,1.94351 -3.468503,2.705872 -0.373388,0.203772 -0.731644,0.438132 -1.120166,0.611312 -0.337415,0.150397 -1.248172,0.04433 -1.049573,0.35582 0.552672,0.866836 1.681594,1.188394 2.461302,1.858396 0.162891,0.13997 -0.423272,-0.120682 -0.59268,-0.25269 -0.390572,-0.304348 -0.616669,-0.916583 -0.815668,-1.327618 -0.108894,-0.337249 -0.234061,-0.669671 -0.326683,-1.011749 -0.677463,-2.50204 -0.739466,-5.128775 -0.431022,-7.690522 0.09181,-0.563718 0.166243,-1.130546 0.275439,-1.691158 0.431958,-2.217653 1.161351,-4.687046 2.337146,-6.629963 0.267391,-0.441844 0.604764,-0.837348 0.907148,-1.256022 0.321654,-0.273693 0.610296,-0.591781 0.964967,-0.821077 1.178679,-0.762015 3.059184,-0.994404 4.431755,-0.860594 0.313418,0.03055 0.619715,0.112292 0.929574,0.168436 -0.860637,-0.545748 -1.737376,-1.06689 -2.581907,-1.637241 -0.154565,-0.104384 0.35847,0.123677 0.507261,0.236138 0.122889,0.09288 0.21458,0.226592 0.285713,0.363228 0.282239,0.542142 0.213818,1.203735 0.184934,1.784405 -0.04725,0.2701 -0.07975,0.543203 -0.141751,0.810303 -0.31532,1.35827 -0.918411,2.714445 -1.875737,3.745915 -0.280069,0.30176 -0.611952,0.550913 -0.91793,0.82637 -0.371893,0.24706 -0.727887,0.519914 -1.115684,0.741178 -1.85161,1.056457 -3.952311,1.652082 -6.044761,1.985372 0,0 3.219641,2.254351 3.219641,2.254351 z" />
  <path
     style="fill:none;fill-opacity:1;fill-rule:nonzero;stroke:url(#pathStrokeColor);stroke-width:1;stroke-dashoffset:0"
     id="path9550"
     d="m 72.253427,55.764052 c 0.312576,2.609995 0.108929,5.249783 -0.06327,7.862427 -0.222449,3.426555 -0.700223,6.826906 -1.239107,10.215713 -0.206214,1.154494 -0.440735,2.303293 -0.633733,3.460165 0,0 3.447087,1.813341 3.447087,1.813341 v 0 c 0.114271,-1.190146 0.292677,-2.372403 0.441185,-3.558554 0.403783,-3.428698 0.828627,-6.855719 1.13828,-10.294577 0.207959,-2.57415 0.397425,-5.151004 0.445127,-7.733927 0,0 -3.535564,-1.764588 -3.535564,-1.764588 z" />
  <path
     style="fill:none;fill-opacity:1;fill-rule:nonzero;stroke:url(#pathStrokeColor);stroke-width:1;stroke-dashoffset:0"
     id="path9552"
     d="m 69.427288,50.93656 c 1.65527,-0.03872 3.308078,-0.126228 4.959805,-0.239168 1.21983,-0.08461 2.422776,-0.304231 3.634965,-0.452204 0.877475,-0.05956 1.736971,-0.221189 2.577888,-0.472885 0.775923,-0.229142 1.58015,-0.337558 2.360827,-0.5462 0.378024,-0.08578 0.732565,-0.244428 1.095301,-0.373071 0.1842,-0.08805 0.09739,-0.04181 0.261257,-0.137141 0,0 -3.323492,-2.171764 -3.323492,-2.171764 v 0 c -0.137123,0.06686 -0.06156,0.03298 -0.227896,0.0989 -0.33896,0.140872 -0.688009,0.258853 -1.041551,0.35731 -0.772847,0.202401 -1.5569,0.359582 -2.327095,0.572833 -0.834128,0.205113 -1.679109,0.354653 -2.534502,0.439454 -1.185658,0.168511 -2.368399,0.360249 -3.560463,0.480164 -1.684803,0.149127 -3.37466,0.221731 -5.065453,0.125804 0,0 3.190409,2.317967 3.190409,2.317968 z" />
  <path
     style="fill:none;fill-opacity:1;fill-rule:nonzero;stroke:url(#pathStrokeColor);stroke-width:1;stroke-dashoffset:0"
     id="path9554"
     d="m 80.540158,31.223342 c 0.884108,-0.03272 1.065065,-0.03074 2.165996,-0.141941 4.41008,-0.445466 8.813713,-1.089872 13.184129,-1.817195 2.44547,-0.406974 4.882247,-0.864566 7.323367,-1.29685 11.25424,-2.114944 22.4012,-4.746929 33.55486,-7.32845 0,0 -2.38091,-1.637692 -2.38091,-1.637692 v 0 c -1.39505,0.416674 -2.78446,0.852681 -4.18513,1.250021 -9.45092,2.681042 -19.04048,4.884915 -28.73395,6.490301 -6.849933,0.997175 -7.414601,1.179568 -13.940298,1.778693 -1.55653,0.142907 -3.116585,0.247311 -4.677008,0.338339 -1.81878,0.106098 -3.67071,0.198064 -5.489887,0.0109 0,0 3.178831,2.353881 3.178831,2.353881 z" />
  <path
     style="fill:none;fill-opacity:1;fill-rule:nonzero;stroke:url(#pathStrokeColor);stroke-width:1;stroke-dashoffset:0"
     id="path9556"
     d="m 106.56419,27.149568 c 0.23103,3.92135 0.41882,7.850214 0.25927,11.779552 -0.08,1.970341 -0.26023,3.935336 -0.39035,5.903002 -0.70962,7.282164 -1.66657,14.56414 -3.31426,21.700495 -0.73912,3.201212 -0.99208,3.845335 -1.91387,6.82884 -0.9926,2.776276 -2.111715,5.540015 -3.636085,8.073475 -0.07368,0.116419 -0.147354,0.232836 -0.221033,0.349255 0,0 3.379228,1.941589 3.379228,1.941589 v 0 c 0.0597,-0.126087 0.1193,-0.252171 0.17895,-0.378256 1.28956,-2.715239 2.24631,-5.581438 3.1095,-8.455408 0.79464,-3.114196 0.98842,-3.689543 1.62001,-7.016922 1.37304,-7.233489 2.18841,-14.5606 3.05809,-21.866349 0.40541,-3.719309 0.77874,-6.800445 1.05226,-10.489526 0.0908,-1.224605 0.16612,-3.505136 0.23314,-4.892283 0.0442,-0.914186 0.0503,-0.948206 0.10607,-1.683467 0,0 -3.52092,-1.793997 -3.52092,-1.793997 z" />
  <path
     style="fill:none;fill-opacity:1;fill-rule:nonzero;stroke:url(#pathStrokeColor);stroke-width:1;stroke-dashoffset:0"
     id="path9558"
     d="m 112.34226,55.570369 c -0.65832,2.574361 -1.42927,5.118036 -2.09759,7.689678 -0.58397,2.247066 -0.625,2.516799 -1.11627,4.718254 -0.32097,1.6052 -0.57842,3.227382 -0.67415,4.863176 -0.0213,0.364778 -0.058,1.187302 0.0406,1.595046 0.0426,0.176075 0.14515,0.331965 0.21773,0.497946 1.26346,0.743585 2.46676,1.600462 3.79039,2.230752 0.31411,0.149572 1.78391,-0.27174 1.91734,-0.321892 1.05662,-0.397116 2.39522,-1.162063 3.3104,-1.767155 0.63745,-0.42146 1.23738,-0.897083 1.85607,-1.345626 2.57549,-2.101876 4.79811,-4.603781 6.61098,-7.389174 0.91916,-1.412259 1.30055,-2.214346 2.06869,-3.675433 0.60689,-1.136827 1.07841,-2.335811 1.59701,-3.512839 0.0744,-0.168952 0.13274,-0.348011 0.23591,-0.501113 0.0174,-0.0258 0.12047,0.02723 0.0922,0.01413 -1.1543,-0.535273 -2.31584,-1.054809 -3.47376,-1.582213 -0.38866,3.310546 -0.90772,6.605473 -1.26091,9.920385 -0.0762,0.715483 -0.13098,1.433092 -0.19648,2.149639 -0.0697,1.524508 -0.12973,3.060927 0.0378,4.582237 0.0625,0.567901 0.15017,1.079105 0.36168,1.608709 0.0729,0.182567 0.18147,0.348797 0.2722,0.523195 0.11126,0.131947 0.20936,0.276225 0.33378,0.395843 0.11252,0.108175 0.23741,0.205642 0.37273,0.283413 1.23052,0.707163 2.46861,1.401742 3.72108,2.069256 0.18735,0.09985 0.39683,0.125005 0.59077,0.03352 0.0744,-0.03511 0.1274,-0.104177 0.1911,-0.156265 0,0 -3.32772,-2.150941 -3.32772,-2.150941 v 0 c -0.21452,0.0044 -0.62782,-0.211236 -0.51409,-0.141195 0.97633,0.601234 1.98088,1.155602 2.96145,1.749891 0.13217,0.0801 -0.28575,-0.121997 -0.41507,-0.206632 -0.13977,-0.09147 -0.25803,-0.212217 -0.38704,-0.318326 -0.11257,-0.15612 -0.24539,-0.299479 -0.33773,-0.468362 -0.2705,-0.494806 -0.40197,-1.025409 -0.50504,-1.57657 -0.28532,-1.52567 -0.30434,-3.084082 -0.28101,-4.630579 0.0473,-0.721103 0.0767,-1.443612 0.14195,-2.16331 0.0718,-0.791353 0.16762,-1.580473 0.26914,-2.368561 0.31714,-2.461807 0.71303,-4.927735 1.42627,-7.309694 -1.12097,-0.773697 -2.2043,-1.604986 -3.36291,-2.321091 -0.0589,-0.03644 -0.0651,0.123132 -0.0866,0.189013 -0.0588,0.180091 -0.0985,0.365953 -0.15383,0.547155 -0.37482,1.227971 -0.82431,2.43217 -1.3539,3.602252 -0.72767,1.497523 -1.0439,2.246244 -1.95204,3.687009 -1.75559,2.785284 -3.97226,5.252889 -6.5736,7.271998 -0.62806,0.42867 -1.23452,0.890852 -1.88418,1.28601 -1.08224,0.658268 -2.207,1.216168 -3.43485,1.544482 -0.36689,0.0981 -0.74887,0.147767 -1.12855,0.156403 -0.25536,0.0058 -0.95634,-0.274228 -0.75783,-0.113496 0.84778,0.68643 1.84662,1.161762 2.76993,1.742641 -0.10494,-0.126293 -0.24745,-0.229134 -0.31482,-0.378878 -0.16847,-0.374441 -0.20253,-1.255995 -0.20999,-1.593548 -0.0366,-1.653792 0.14623,-3.303119 0.4213,-4.93155 0.1488,-0.755775 0.27999,-1.515232 0.4464,-2.267326 0.74591,-3.371226 1.75065,-6.705018 3.16143,-9.859843 0,0 -3.41643,-1.900426 -3.41643,-1.900426 z" />
  <path
     style="fill:none;fill-opacity:1;fill-rule:nonzero;stroke:url(#pathStrokeColor);stroke-width:1;stroke-dashoffset:0"
     id="path9560"
     d="m 132.18898,55.11269 c 0.52978,2.688362 0.57592,5.460934 0.48081,8.191421 -0.031,0.890042 -0.0992,1.778399 -0.14878,2.6676 -0.17751,2.193584 -0.46963,4.375981 -0.83885,6.544979 -0.10729,0.630256 -0.33376,1.883484 -0.50616,2.558902 -0.0593,0.232278 -0.14412,0.457277 -0.21618,0.685914 -0.0573,0.09516 -0.0654,0.253873 -0.17189,0.285467 -0.0743,0.02207 -0.0775,-0.263499 -0.006,-0.232577 1.12043,0.487151 2.09776,1.313831 3.27169,1.652297 0.23416,0.06751 -0.069,-0.484413 -0.0662,-0.728099 0.0123,-1.075031 0.17343,-1.559891 0.39573,-2.670593 0.23853,-0.672561 0.42122,-1.367613 0.71557,-2.017678 0.78258,-1.728309 1.84023,-3.349223 2.95662,-4.874371 1.04008,-1.4209 2.31476,-2.923109 3.53732,-4.19983 0.50343,-0.525729 1.0441,-1.014486 1.56615,-1.521729 0.44971,-0.386551 1.5516,-1.512467 2.32013,-1.635586 0.24758,-0.03966 0.94602,0.332529 0.71245,0.241356 -0.89578,-0.349652 -1.75798,-1.212078 -2.69958,-1.017006 -0.50593,0.104815 0.34456,0.977257 0.45226,1.482585 0.13809,0.647973 0.18866,1.31155 0.28299,1.967325 0.33964,4.232455 0.22189,8.486378 0.0333,12.723297 -0.0825,1.407951 -0.0378,0.764617 -0.12762,1.930447 0,0 3.38199,1.734241 3.38199,1.734241 v 0 c -0.0278,-1.22319 -0.015,-0.550963 -0.0349,-2.016744 -0.0283,-4.271066 0.044,-8.544039 -0.10655,-12.813239 -0.005,-0.05913 -0.21165,-3.232494 -0.45742,-3.493312 -1.07254,-1.138217 -2.43913,-1.973459 -3.77705,-2.783298 -0.22258,-0.134723 -0.53815,-0.07073 -0.78012,0.02487 -0.6963,0.275063 -1.72415,1.426771 -2.15228,1.849768 -0.49608,0.530656 -1.00632,1.048425 -1.48824,1.591974 -1.15363,1.301147 -2.44492,2.894497 -3.47253,4.282379 -1.02217,1.380549 -2.36291,3.300373 -3.17469,4.838079 -0.33808,0.6404 -0.57705,1.328401 -0.86557,1.9926 -0.33032,1.194136 -0.47113,1.513179 -0.62016,2.656203 -0.0328,0.251576 -0.23349,0.586414 -0.0481,0.759597 1.02224,0.954866 2.23813,1.687296 3.43779,2.406706 0.19754,0.118464 0.34897,-0.679088 0.34254,-0.600162 0.21286,-1.132115 0.35287,-2.268683 0.49059,-3.412541 0.26669,-2.215052 0.50778,-4.433281 0.67933,-6.658054 0.23609,-3.54375 0.46614,-7.10424 0.2457,-10.655178 0,0 -3.54372,-1.737998 -3.54372,-1.737998 z" />
  <path
     style="fill:none;fill-opacity:1;fill-rule:nonzero;stroke:url(#pathStrokeColor);stroke-width:1;stroke-dashoffset:0"
     id="path9562"
     d="m 166.03506,60.906118 c -0.15992,-0.694621 -0.51525,-1.298488 -1.01321,-1.809549 -0.22548,-0.231413 -0.45707,-0.467077 -0.73486,-0.632071 -4.05308,-2.407312 -2.64564,-2.193576 -5.17419,-2.29974 -0.37883,0.131339 -0.78477,0.201552 -1.13652,0.394018 -0.90851,0.497112 -1.66101,1.322511 -2.2547,2.147091 -0.81707,1.134864 -1.37416,2.296115 -1.86289,3.605818 -0.25905,0.694208 -0.44505,1.413526 -0.66758,2.120289 -0.45927,1.931111 -0.84822,3.916875 -0.67683,5.914416 0.0818,0.953392 0.29439,1.993765 0.85433,2.802409 0.24168,0.34903 0.60487,0.595873 0.9073,0.89381 1.52229,0.681095 2.93551,1.697008 4.56688,2.043287 0.69702,0.147952 1.38135,-0.367411 2.03926,-0.641054 2.51527,-1.04616 4.69345,-2.618094 6.77613,-4.342455 0.57171,-0.473343 1.11842,-0.976085 1.67762,-1.464128 0.46345,-0.379455 1.47473,-1.318945 2.16578,-1.565079 0.17108,-0.06093 0.36316,0.0056 0.54474,0.0084 -1.02248,-0.518382 -1.99027,-1.162862 -3.06744,-1.555152 -0.17898,-0.06518 0.18781,0.337024 0.23165,0.522396 0.077,0.325544 0.0849,0.663641 0.12728,0.995461 0.0352,0.61223 0.0822,1.223896 0.10571,1.836687 0.16514,4.307155 0.13294,8.628832 -0.0977,12.932725 -0.0657,1.226293 -0.16642,2.450465 -0.24963,3.6757 -0.34233,4.393469 -0.90602,8.800381 -2.25387,13.012434 -0.78039,2.438759 -1.14065,3.071029 -2.17622,5.375439 -1.09645,2.1917 -2.36596,4.31112 -3.96664,6.17643 -0.72759,0.84788 -1.6948,1.89435 -2.78329,2.31962 -0.61858,0.24168 -1.30227,0.26139 -1.95341,0.39209 -0.81584,-0.0106 -1.63359,0.0249 -2.44752,-0.0318 -1.92924,-0.13448 -4.19137,-0.53953 -6.07079,-0.91323 -2.03281,-0.40419 -4.42258,-0.95872 -6.42637,-1.50849 -0.93026,-0.25523 -1.84864,-0.55195 -2.77295,-0.82792 -0.115,-0.0466 -4.00118,-1.48784 -4.11942,-2.00456 -0.12997,-0.56798 1.2972,0.91662 1.68123,0.47843 0.37465,-0.42749 -0.61148,-0.9768 -0.76475,-1.52417 -0.44399,-1.5856 -0.0464,-2.16268 0.37405,-3.71475 0.45372,-0.69516 0.80833,-1.46623 1.36117,-2.08549 1.67844,-1.880109 3.82737,-3.184909 6.02715,-4.354979 3.27342,-1.741153 5.49606,-2.497283 8.94402,-3.849543 0,0 -2.31243,-1.551338 -2.31243,-1.551338 v 0 c -3.05263,1.199726 -6.15447,2.345938 -9.10231,3.796818 -2.31399,1.138903 -4.634,2.382053 -6.46176,4.252033 -0.60751,0.621539 -1.01028,1.414499 -1.51542,2.121759 -0.51213,1.62076 -0.95439,2.21154 -0.56032,3.90846 0.60729,2.61508 2.72919,3.17856 5.04156,4.7166 1.48122,0.9852 2.31916,1.18098 4.01642,1.82142 0.90304,0.25438 1.80156,0.52536 2.70911,0.76314 1.93719,0.50756 4.4741,1.08886 6.42558,1.48255 1.89443,0.38218 4.30757,0.83918 6.25643,0.98235 0.85842,0.0631 1.72131,0.0228 2.58197,0.0341 0.69681,-0.1545 1.43235,-0.1872 2.09043,-0.4635 1.08297,-0.45469 2.0566,-1.60223 2.75331,-2.47608 1.54468,-1.93742 2.77902,-4.10389 3.86678,-6.32256 0.98075,-2.24932 1.41204,-3.07441 2.14961,-5.44612 1.32438,-4.258599 1.82016,-8.709188 2.15033,-13.13875 0.0829,-1.227947 0.17555,-2.455275 0.24874,-3.683838 0.28779,-4.830715 0.38489,-9.668489 0.60414,-14.502111 -0.004,-0.340263 0.0103,-0.681181 -0.0111,-1.020787 -0.0149,-0.23546 0.0914,-0.559744 -0.0975,-0.701037 -1.14066,-0.852993 -2.40473,-1.544669 -3.69942,-2.138349 -0.17429,-0.07992 -0.37927,0.09166 -0.54167,0.193603 -0.54135,0.339855 -1.59447,1.424348 -1.94253,1.761548 -0.52762,0.499409 -1.03491,1.021218 -1.58286,1.498227 -1.42783,1.242965 -2.65843,2.196677 -4.34589,3.08958 -0.78671,0.416279 -1.60124,0.79154 -2.44726,1.068014 -0.67586,0.220866 -1.97378,-0.285628 -2.09224,0.415465 -0.13003,0.76953 1.17427,1.028308 1.7614,1.542462 -0.32865,-0.259112 -0.71652,-0.457083 -0.98594,-0.77734 -0.62796,-0.746453 -0.89615,-1.765845 -1.01848,-2.702288 -0.25722,-1.969045 0.0871,-3.946734 0.53301,-5.858065 0.22273,-0.691581 0.40475,-1.397625 0.66819,-2.074746 0.48069,-1.235504 1.08316,-2.407933 1.90226,-3.455572 0.59022,-0.754894 1.35553,-1.510758 2.25152,-1.90975 0.33898,-0.150952 0.72173,-0.172905 1.0826,-0.259357 1.76913,0.256339 1.58714,0.367546 -1.33212,-1.335392 -0.26589,-0.155109 0.50728,0.351697 0.73627,0.557424 0.47057,0.422764 0.84189,0.922674 0.96788,1.548564 0,0 3.53827,1.740048 3.53827,1.740048 z" />
  <path
     style="fill:none;fill-opacity:1;fill-rule:nonzero;stroke:url(#pathStrokeColor);stroke-width:1;stroke-dashoffset:0"
     id="path9861"
     d="m 208.84026,18.447704 c -1.07081,0.07527 -1.9452,0.547942 -2.82408,1.151422 -0.60434,0.41497 -1.19856,0.848664 -1.75198,1.329447 -2.33422,2.027848 -2.7543,2.748073 -4.89117,5.271725 -3.24693,4.373766 -6.16614,9.024297 -8.2984,14.053568 -0.78597,1.853854 -1.46883,3.753472 -2.06622,5.6764 -1.46268,4.7082 -1.70971,6.849142 -2.58241,11.629274 -0.49366,4.325516 -1.01527,8.758978 -0.32876,13.102703 0.29198,1.847429 0.7611,3.515818 1.94655,4.997402 0.46138,0.576641 1.1088,0.97576 1.66321,1.463638 1.70551,0.841611 3.32822,1.877494 5.11652,2.524829 0.67233,0.243372 1.4301,0.162978 2.14259,0.102854 2.39649,-0.202229 4.5609,-1.45016 6.39129,-2.928863 0.73718,-0.595543 1.3974,-1.280512 2.0961,-1.920767 2.0257,-2.019683 3.84671,-4.224162 5.65763,-6.433267 0,0 -3.04646,-1.820944 -3.04646,-1.820944 v 0 c -1.74676,2.235375 -3.51936,4.454316 -5.59004,6.406348 -0.70483,0.618062 -1.37247,1.281306 -2.11449,1.854184 -1.25532,0.969169 -2.67373,1.83837 -4.20392,2.307934 -0.68411,0.209934 -1.39778,0.347692 -2.11256,0.381913 -0.69411,0.03323 -1.55731,-0.642887 -2.07681,-0.181351 -0.37854,0.336304 0.72645,0.705567 1.08968,1.05835 -0.58414,-0.457161 -1.2584,-0.81815 -1.7524,-1.371481 -1.27789,-1.43137 -1.82357,-3.0889 -2.19258,-4.943497 -0.86521,-4.348368 -0.47021,-8.830455 -0.0452,-13.196022 0.85036,-4.983424 0.97432,-6.703763 2.51901,-11.60372 2.24506,-7.121562 5.88387,-13.682075 10.59578,-19.46203 2.25796,-2.438574 2.68032,-3.123088 5.13406,-5.029335 0.57913,-0.449908 1.19613,-0.851894 1.82753,-1.224923 0.9094,-0.53727 1.81427,-0.914161 2.87494,-0.846687 0,0 -3.17737,-2.349104 -3.17737,-2.349104 z" />
  <path
     style="fill:none;fill-opacity:1;fill-rule:nonzero;stroke:url(#pathStrokeColor);stroke-width:1;stroke-dashoffset:0"
     id="path9863"
     d="m 221.91723,18.776825 c -0.10843,0.95572 -0.17325,1.502021 -0.27365,2.574695 -0.34879,3.726529 -0.29475,3.769765 -0.74491,8.127111 -0.65422,6.332685 -0.81697,7.280042 -1.64401,13.741905 -1.27578,9.522013 -2.75554,19.019186 -4.64771,28.439149 -0.13605,0.623546 -0.44212,2.098389 -0.64605,2.816395 -0.0429,0.1511 -0.30071,0.356986 -0.16762,0.440412 1.10123,0.6903 2.24525,1.442921 3.52589,1.664689 0.3442,0.05961 0.19097,-0.672912 0.31454,-0.999643 0.22343,-0.590714 0.48371,-1.166826 0.72556,-1.75024 2.24167,-4.961326 5.00651,-9.709446 8.29104,-14.056527 0.55545,-0.735144 1.15709,-1.434229 1.73564,-2.151343 0.38759,-0.438689 2.10918,-2.443114 2.70275,-2.93113 0.27338,-0.224761 0.5771,-0.465826 0.92727,-0.51716 0.23414,-0.03432 0.87728,0.35107 0.64977,0.285972 -3.35914,-0.961133 -2.96825,-1.903328 -2.21975,1.181187 0.66707,4.723405 0.78791,9.500643 1.05324,14.257928 0.0619,1.391618 0.19377,2.657779 1.23966,3.668754 0.12153,0.117475 0.26082,0.215056 0.39123,0.322583 1.25816,0.717439 2.50096,1.462519 3.77448,2.152314 0.64393,0.348779 1.49635,0.03787 2.11541,-0.199483 0.48294,-0.196738 0.91594,-0.491458 1.35712,-0.764712 0,0 -3.27894,-2.119114 -3.27894,-2.119114 v 0 c -0.42946,0.255413 -0.85609,0.522629 -1.33335,0.682377 -0.37694,0.118639 -0.73943,0.227195 -1.14152,0.1906 -1.24745,-0.11353 -3.65896,-2.128679 2.14316,1.499312 -1.56655,-1.013759 -1.73091,-1.947577 -1.94006,-3.769691 -0.47279,-4.770829 -0.66436,-9.562846 -1.11436,-14.335447 -0.10384,-0.695601 0.13098,-1.540135 -0.31151,-2.086803 -1.02141,-1.261902 -2.46582,-2.126282 -3.82156,-3.019391 -0.21443,-0.141261 -0.53143,-0.09973 -0.77032,-0.0056 -0.3408,0.134329 -0.6184,0.401439 -0.88128,0.656558 -0.51183,0.496729 -2.23553,2.650731 -2.56155,3.050593 -0.55719,0.736725 -1.13224,1.460273 -1.67156,2.210173 -3.19152,4.437669 -5.99597,9.152972 -8.52818,13.99304 -0.28851,0.565502 -0.5827,1.128144 -0.86553,1.696506 -0.15693,0.315346 -0.69767,0.700392 -0.45363,0.954386 3.5543,3.69924 3.2065,3.222601 3.45949,1.588974 0.0609,-0.393425 0.12781,-0.785905 0.19171,-1.178856 0.0885,-0.583978 0.17698,-1.167956 0.26547,-1.751934 1.33451,-9.608367 2.58698,-19.227895 3.91859,-28.836672 0.87325,-6.154065 1.7824,-12.298923 2.75493,-18.438037 0.15756,-0.994614 0.30482,-1.990937 0.47468,-2.983526 0.20475,-1.196587 0.27365,-1.4609 0.49642,-2.44175 0,0 -3.491,-1.858582 -3.491,-1.858582 z" />
  <path
     style="fill:none;fill-opacity:1;fill-rule:nonzero;stroke:url(#pathStrokeColor);stroke-width:1;stroke-dashoffset:0"
     id="path9867"
     d="m 244.18776,65.227997 c 2.0212,-0.359616 4.09279,-0.471294 6.08512,-0.990922 0.50257,-0.131078 0.98955,-0.315934 1.48432,-0.473898 0.42917,-0.211323 0.88505,-0.375383 1.28752,-0.633966 1.18856,-0.76364 1.95093,-1.867315 2.10295,-3.287461 0.13135,-1.227132 -0.10277,-1.744903 -0.38868,-2.916706 -0.20914,-0.44864 -0.37827,-0.918199 -0.6274,-1.345927 -0.62554,-1.073981 -1.77553,-2.353302 -2.8484,-3.003005 -4.15086,-2.513669 -2.86072,-2.085755 -5.53668,-2.735183 -0.41636,-0.0026 -0.83657,-0.06428 -1.24907,-0.0076 -1.5242,0.209225 -2.67171,1.13279 -3.44656,2.435725 -0.85663,1.440474 -0.93178,2.300068 -1.34677,3.948809 -0.0881,0.877543 -0.22339,1.751623 -0.26424,2.632628 -0.0424,0.915014 -0.0205,1.832633 0.0148,2.747952 0.0902,2.342049 0.36095,4.717097 0.9526,6.989508 0.14977,0.575239 0.35563,1.13439 0.53345,1.701586 0.4175,0.998849 0.53927,1.517607 1.21697,2.341514 0.22548,0.274127 0.47266,0.543071 0.77274,0.732642 1.98501,1.253956 3.16595,2.280571 5.19828,2.645857 0.41044,0.07377 0.82835,0.09712 1.24253,0.145683 1.97524,0.144737 4.03089,-0.07982 5.79132,-1.052201 0.19632,-0.108436 0.37416,-0.24739 0.56124,-0.371088 0.12125,-0.119663 0.24251,-0.239327 0.36376,-0.35899 0,0 -3.34151,-2.045303 -3.34151,-2.045303 v 0 c -0.0991,0.103032 -0.19829,0.206063 -0.29744,0.309094 -0.16704,0.114456 -0.32493,0.243557 -0.50111,0.343366 -1.69914,0.962573 -3.69876,1.111115 -5.60336,0.909542 -0.41204,-0.06938 -0.82983,-0.110535 -1.23611,-0.208126 -0.92103,-0.22124 -3.81611,-1.553427 1.35673,1.116658 0.314,0.162081 -0.58611,-0.403318 -0.83156,-0.65753 -0.76076,-0.78791 -0.87952,-1.276434 -1.35513,-2.28343 -0.19825,-0.564142 -0.42641,-1.118645 -0.59474,-1.692424 -0.6608,-2.252453 -0.98422,-4.627811 -1.08852,-6.968529 -0.0401,-0.900176 -0.0629,-1.803371 -0.0149,-2.703163 0.0456,-0.856237 0.1968,-1.703573 0.2952,-2.555359 0.42737,-1.552223 0.52679,-2.412564 1.37268,-3.755864 0.76001,-1.206913 1.86474,-2.003113 3.30467,-2.112505 0.39903,-0.03031 0.79864,0.05242 1.19796,0.07863 1.41663,0.430588 2.57506,0.890039 -0.97175,-0.965507 -0.3861,-0.201997 0.72807,0.482258 1.06238,0.761764 1.1026,0.921859 1.97741,2.038559 2.5371,3.36608 0.31382,1.113414 0.55063,1.565235 0.45259,2.740062 -0.11,1.318048 -0.81849,2.317279 -1.9204,3.0125 -0.38753,0.244499 -0.82447,0.400119 -1.2367,0.600179 -0.484,0.149251 -0.96047,0.325522 -1.45199,0.447754 -2.04175,0.507751 -4.16468,0.613606 -6.24983,0.821259 0,0 3.21599,2.295948 3.21599,2.295948 z" />
  <path
     style="fill:none;fill-opacity:1;fill-rule:nonzero;stroke:url(#pathStrokeColor);stroke-width:1;stroke-dashoffset:0"
     id="path9871"
     d="m 259.00514,51.156064 c 0.27815,5.410864 0.27223,10.833306 0.23987,16.249827 -0.0609,2.121718 -0.0524,4.250415 -0.25397,6.365817 -0.0257,0.268822 -0.0571,0.537609 -0.10671,0.803061 -0.0153,0.08226 -0.16076,0.195408 -0.0873,0.23541 1.12503,0.612225 2.32452,1.076388 3.48678,1.61458 -0.0295,-0.194604 -0.0777,-0.387284 -0.0886,-0.583814 -0.15843,-2.855859 0.78232,-5.995389 1.80898,-8.60104 0.46805,-1.187895 1.04315,-2.330762 1.56475,-3.496141 1.31501,-2.778789 2.90269,-5.416917 4.77488,-7.85505 0.39029,-0.508286 0.74983,-1.052301 1.22695,-1.480114 0.28224,-0.25305 1.26694,-0.246917 1.00894,-0.524629 -0.61968,-0.667022 -1.67058,-0.724455 -2.50587,-1.086683 0.27094,0.524409 0.60579,1.02045 0.81278,1.573228 0.55737,1.488461 0.95001,3.687112 1.2107,5.213001 0.48477,2.83763 0.84341,5.701636 1.23164,8.553619 0.38571,2.874515 0.85092,5.737979 1.34014,8.596511 0,0 3.44757,1.670465 3.44757,1.670465 v 0 c -0.67421,-2.877764 -1.19962,-5.789538 -1.63004,-8.713356 -0.41638,-2.856936 -0.80174,-5.720334 -1.24315,-8.573452 -0.24101,-1.557835 -0.56687,-3.663598 -1.0051,-5.209903 -0.16467,-0.581019 -0.41513,-1.134226 -0.62267,-1.701339 -1.40904,-0.793028 -2.68822,-1.883 -4.22711,-2.379081 -0.37907,-0.122195 -0.69223,0.414666 -0.96422,0.705591 -0.43929,0.46986 -0.77939,1.023996 -1.14658,1.552109 -1.76366,2.536484 -3.30017,5.221865 -4.60663,8.02209 -0.54557,1.162479 -1.12879,2.308019 -1.63671,3.487439 -1.24323,2.886935 -2.30976,5.946603 -2.33458,9.124661 1.19354,0.651267 2.34172,1.393584 3.58061,1.953803 0.0985,0.04456 0.0212,-0.215429 0.0246,-0.323525 0.01,-0.288404 0.0122,-0.577003 0.0146,-0.865553 0.0172,-2.176197 -0.0357,-4.351932 -0.0335,-6.528133 -0.0317,-5.334921 -0.0442,-10.676453 0.23987,-16.0054 0,0 -3.52095,-1.793999 -3.52095,-1.793999 z" />
  <path
     style="fill:none;fill-opacity:1;fill-rule:nonzero;stroke:url(#pathStrokeColor);stroke-width:1;stroke-dashoffset:0"
     id="path11098"
     d="m 19.670949,122.24176 c 1.050486,-1.96471 2.204527,-3.92989 3.68664,-5.60734 0.710644,-0.8043 1.469647,-1.56737 2.260927,-2.29249 0.94061,-0.86196 1.952774,-1.64242 2.929163,-2.46363 3.06502,-2.18617 4.357711,-3.25514 7.792627,-5.05283 6.026105,-3.15382 12.526838,-5.4094 19.031844,-7.336341 2.445848,-0.724522 4.922978,-1.338926 7.384465,-2.008391 11.068929,-2.701031 22.32874,-4.649814 33.659035,-5.856422 8.58661,-0.914422 13.40998,-1.132912 22.10779,-1.696411 14.86997,-0.785963 29.76249,-1.224957 44.65428,-1.0776 7.47337,0.07395 12.44495,0.271838 19.86931,0.508495 13.2069,0.446923 26.41393,1.082267 39.63029,1.184907 7.25027,0.05631 9.03715,-0.04619 16.0457,-0.229986 7.34818,-0.302432 14.7128,-0.776576 21.98128,-1.948802 2.97609,-0.47997 4.21873,-0.799814 7.05067,-1.436238 2.04515,-0.517025 4.09869,-1.035915 6.07777,-1.775788 1.07135,-0.400524 2.09264,-0.907243 3.11737,-1.410906 0,0 -3.24945,-2.136154 -3.24945,-2.136154 v 0 c -0.98732,0.512459 -1.9744,1.015238 -3.01215,1.4213 -1.91984,0.751221 -3.90938,1.311603 -5.89627,1.85126 -2.84892,0.692319 -3.87769,0.98869 -6.89752,1.505963 -7.15984,1.226434 -14.42413,1.748147 -21.66977,2.126322 -6.84961,0.249594 -8.7453,0.37951 -15.83218,0.367625 -13.2125,-0.02217 -26.41147,-0.714208 -39.61226,-1.176552 -7.41502,-0.204986 -12.30658,-0.377864 -19.77202,-0.427204 -14.86869,-0.09827 -29.73428,0.381466 -44.58151,1.150133 -7.67453,0.463902 -14.68197,0.812062 -22.323183,1.562643 -11.403414,1.120134 -22.725022,3.084343 -33.86243,5.76567 -2.474066,0.666411 -4.962977,1.279964 -7.422195,1.999231 -4.470884,1.307635 -9.255005,2.904906 -13.577641,4.666866 -1.94057,0.791 -3.867854,1.62299 -5.739111,2.56633 -3.427093,1.72766 -4.878615,2.88849 -7.941476,5.02377 -2.171872,1.76942 -3.506257,2.71981 -5.380424,4.73118 -1.545886,1.65906 -2.744043,3.62258 -3.920921,5.54711 0,0 3.41135,1.95428 3.41135,1.95428 z" />
</svg>
