<?xml version="1.0" encoding="iso-8859-1"?>
<!-- Uploaded to: SVG Repo, www.svgrepo.com, Generator: SVG Repo Mixer Tools -->
<svg fill="#000000" height="800px" width="800px" version="1.1" id="Layer_1" xmlns="http://www.w3.org/2000/svg" xmlns:xlink="http://www.w3.org/1999/xlink" 
	 viewBox="0 0 512 512" xml:space="preserve">
<g>
	<!-- <g>
		<path d="M256,0C114.848,0,0,114.848,0,256s114.848,256,256,256s256-114.848,256-256S397.152,0,256,0z M256,490.667
			C126.603,490.667,21.333,385.397,21.333,256S126.603,21.333,256,21.333S490.667,126.603,490.667,256S385.397,490.667,256,490.667z
			"/>
	</g> -->
</g>
<g>
	<g>
		<path d="M224,149.333h-53.333c-5.891,0-10.667,4.776-10.667,10.667v202.667c0,5.891,4.776,10.667,10.667,10.667H224
			c5.891,0,10.667-4.776,10.667-10.667V160C234.667,154.109,229.891,149.333,224,149.333z M213.333,352h-32V170.667h32V352z"/>
	</g>
</g>
<g>
	<g>
		<path d="M341.333,149.333H288c-5.891,0-10.667,4.776-10.667,10.667v202.667c0,5.891,4.776,10.667,10.667,10.667h53.333
			c5.891,0,10.667-4.776,10.667-10.667V160C352,154.109,347.224,149.333,341.333,149.333z M330.667,352h-32V170.667h32V352z"/>
	</g>
</g>
</svg>